<mxfile host="app.diagrams.net" modified="2023-04-21T10:19:30.228Z" agent="Mozilla/5.0 (Windows NT 10.0; Win64; x64) AppleWebKit/537.36 (KHTML, like Gecko) Chrome/112.0.0.0 Safari/537.36" etag="jTHnG_6pvomu-qGlRuBV" version="21.1.6" type="device">
  <diagram id="TqJKKpAt_f0XUR_mfn19" name="Page-1">
    <mxGraphModel dx="1050" dy="523" grid="1" gridSize="10" guides="1" tooltips="1" connect="1" arrows="1" fold="1" page="1" pageScale="1" pageWidth="827" pageHeight="1169" math="0" shadow="0">
      <root>
        <mxCell id="0" />
        <mxCell id="1" parent="0" />
        <mxCell id="GTqaI5zs6q6qDNkmL9B8-1" value="States(8x20)" style="rounded=1;whiteSpace=wrap;html=1;verticalAlign=top;" parent="1" vertex="1">
          <mxGeometry x="220" y="140" width="370" height="90" as="geometry" />
        </mxCell>
        <mxCell id="GTqaI5zs6q6qDNkmL9B8-18" value="" style="shape=table;html=1;whiteSpace=wrap;startSize=0;container=1;collapsible=0;childLayout=tableLayout;swimlaneLine=1;dashed=1;" parent="1" vertex="1">
          <mxGeometry x="258" y="170" width="312" height="32" as="geometry" />
        </mxCell>
        <mxCell id="GTqaI5zs6q6qDNkmL9B8-19" value="" style="shape=tableRow;horizontal=0;startSize=0;swimlaneHead=0;swimlaneBody=0;top=0;left=0;bottom=0;right=0;collapsible=0;dropTarget=0;fillColor=none;points=[[0,0.5],[1,0.5]];portConstraint=eastwest;" parent="GTqaI5zs6q6qDNkmL9B8-18" vertex="1">
          <mxGeometry width="312" height="32" as="geometry" />
        </mxCell>
        <mxCell id="ciOblWD0qd0sDOg3PJlo-4" value="(20)" style="shape=partialRectangle;html=1;whiteSpace=wrap;connectable=0;fillColor=none;top=0;left=0;bottom=0;right=0;overflow=hidden;" vertex="1" parent="GTqaI5zs6q6qDNkmL9B8-19">
          <mxGeometry width="39" height="32" as="geometry">
            <mxRectangle width="39" height="32" as="alternateBounds" />
          </mxGeometry>
        </mxCell>
        <mxCell id="ciOblWD0qd0sDOg3PJlo-5" value="(20)" style="shape=partialRectangle;html=1;whiteSpace=wrap;connectable=0;fillColor=none;top=0;left=0;bottom=0;right=0;overflow=hidden;" vertex="1" parent="GTqaI5zs6q6qDNkmL9B8-19">
          <mxGeometry x="39" width="39" height="32" as="geometry">
            <mxRectangle width="39" height="32" as="alternateBounds" />
          </mxGeometry>
        </mxCell>
        <mxCell id="ciOblWD0qd0sDOg3PJlo-6" value="(20)" style="shape=partialRectangle;html=1;whiteSpace=wrap;connectable=0;fillColor=none;top=0;left=0;bottom=0;right=0;overflow=hidden;" vertex="1" parent="GTqaI5zs6q6qDNkmL9B8-19">
          <mxGeometry x="78" width="40" height="32" as="geometry">
            <mxRectangle width="40" height="32" as="alternateBounds" />
          </mxGeometry>
        </mxCell>
        <mxCell id="ciOblWD0qd0sDOg3PJlo-3" value="(20)" style="shape=partialRectangle;html=1;whiteSpace=wrap;connectable=0;fillColor=none;top=0;left=0;bottom=0;right=0;overflow=hidden;" vertex="1" parent="GTqaI5zs6q6qDNkmL9B8-19">
          <mxGeometry x="118" width="39" height="32" as="geometry">
            <mxRectangle width="39" height="32" as="alternateBounds" />
          </mxGeometry>
        </mxCell>
        <mxCell id="GTqaI5zs6q6qDNkmL9B8-20" value="(20)" style="shape=partialRectangle;html=1;whiteSpace=wrap;connectable=0;fillColor=none;top=0;left=0;bottom=0;right=0;overflow=hidden;" parent="GTqaI5zs6q6qDNkmL9B8-19" vertex="1">
          <mxGeometry x="157" width="39" height="32" as="geometry">
            <mxRectangle width="39" height="32" as="alternateBounds" />
          </mxGeometry>
        </mxCell>
        <mxCell id="GTqaI5zs6q6qDNkmL9B8-21" value="(20)" style="shape=partialRectangle;html=1;whiteSpace=wrap;connectable=0;fillColor=none;top=0;left=0;bottom=0;right=0;overflow=hidden;" parent="GTqaI5zs6q6qDNkmL9B8-19" vertex="1">
          <mxGeometry x="196" width="39" height="32" as="geometry">
            <mxRectangle width="39" height="32" as="alternateBounds" />
          </mxGeometry>
        </mxCell>
        <mxCell id="GTqaI5zs6q6qDNkmL9B8-22" value="(20)" style="shape=partialRectangle;html=1;whiteSpace=wrap;connectable=0;fillColor=none;top=0;left=0;bottom=0;right=0;overflow=hidden;" parent="GTqaI5zs6q6qDNkmL9B8-19" vertex="1">
          <mxGeometry x="235" width="38" height="32" as="geometry">
            <mxRectangle width="38" height="32" as="alternateBounds" />
          </mxGeometry>
        </mxCell>
        <mxCell id="GTqaI5zs6q6qDNkmL9B8-44" value="(20)" style="shape=partialRectangle;html=1;whiteSpace=wrap;connectable=0;fillColor=none;top=0;left=0;bottom=0;right=0;overflow=hidden;" parent="GTqaI5zs6q6qDNkmL9B8-19" vertex="1">
          <mxGeometry x="273" width="39" height="32" as="geometry">
            <mxRectangle width="39" height="32" as="alternateBounds" />
          </mxGeometry>
        </mxCell>
        <mxCell id="GTqaI5zs6q6qDNkmL9B8-52" value="noise&lt;br&gt;(1)" style="rounded=1;whiteSpace=wrap;html=1;dashed=1;" parent="1" vertex="1">
          <mxGeometry x="640" y="120" width="120" height="60" as="geometry" />
        </mxCell>
        <mxCell id="GTqaI5zs6q6qDNkmL9B8-56" value="&lt;span style=&quot;color: rgb(0, 0, 0); font-family: Helvetica; font-size: 11px; font-style: normal; font-variant-ligatures: normal; font-variant-caps: normal; font-weight: 400; letter-spacing: normal; orphans: 2; text-align: center; text-indent: 0px; text-transform: none; widows: 2; word-spacing: 0px; -webkit-text-stroke-width: 0px; text-decoration-thickness: initial; text-decoration-style: initial; text-decoration-color: initial; float: none; display: inline !important;&quot;&gt;rate=65000&lt;/span&gt;" style="rounded=1;orthogonalLoop=1;jettySize=auto;html=1;entryX=0.5;entryY=0;entryDx=0;entryDy=0;labelBackgroundColor=none;" parent="1" edge="1">
          <mxGeometry x="-0.2" y="36" relative="1" as="geometry">
            <mxPoint x="404" y="90" as="sourcePoint" />
            <mxPoint x="404" y="140" as="targetPoint" />
            <mxPoint as="offset" />
          </mxGeometry>
        </mxCell>
        <mxCell id="GTqaI5zs6q6qDNkmL9B8-55" value="INPUT&lt;br&gt;Stimulus&lt;br&gt;(1)" style="rounded=1;whiteSpace=wrap;html=1;dashed=1;fillColor=#d5e8d4;strokeColor=#82b366;" parent="1" vertex="1">
          <mxGeometry x="250" y="30" width="310" height="60" as="geometry" />
        </mxCell>
        <mxCell id="GTqaI5zs6q6qDNkmL9B8-58" value="reward stimulus&lt;br&gt;(1)" style="rounded=1;whiteSpace=wrap;html=1;dashed=1;fillColor=#fff2cc;strokeColor=#d6b656;" parent="1" vertex="1">
          <mxGeometry x="10" y="50" width="120" height="60" as="geometry" />
        </mxCell>
        <mxCell id="GTqaI5zs6q6qDNkmL9B8-59" value="DA&lt;br&gt;(150)" style="rounded=1;whiteSpace=wrap;html=1;" parent="1" vertex="1">
          <mxGeometry x="30" y="190" width="120" height="60" as="geometry" />
        </mxCell>
        <mxCell id="GTqaI5zs6q6qDNkmL9B8-60" value="VOLUME&lt;br&gt;TRANSMITTER" style="ellipse;whiteSpace=wrap;html=1;aspect=fixed;fillColor=#e1d5e7;strokeColor=#9673a6;" parent="1" vertex="1">
          <mxGeometry x="150" y="30" width="90" height="90" as="geometry" />
        </mxCell>
        <mxCell id="GTqaI5zs6q6qDNkmL9B8-61" value="Critic&lt;br&gt;(50)" style="rounded=1;whiteSpace=wrap;html=1;" parent="1" vertex="1">
          <mxGeometry x="30" y="360" width="120" height="60" as="geometry" />
        </mxCell>
        <mxCell id="GTqaI5zs6q6qDNkmL9B8-62" value="critic noise&lt;br&gt;(1)" style="rounded=1;whiteSpace=wrap;html=1;dashed=1;" parent="1" vertex="1">
          <mxGeometry x="30" y="460" width="120" height="60" as="geometry" />
        </mxCell>
        <mxCell id="GTqaI5zs6q6qDNkmL9B8-63" value="&lt;font size=&quot;1&quot; style=&quot;&quot;&gt;&lt;b style=&quot;font-size: 11px;&quot;&gt;Actions(WTA)&lt;/b&gt;&lt;/font&gt;" style="rounded=1;whiteSpace=wrap;html=1;verticalAlign=top;" parent="1" vertex="1">
          <mxGeometry x="270" y="303" width="270" height="130" as="geometry" />
        </mxCell>
        <mxCell id="GTqaI5zs6q6qDNkmL9B8-64" value="LEFT&lt;br&gt;(50)" style="ellipse;whiteSpace=wrap;html=1;aspect=fixed;verticalAlign=middle;" parent="1" vertex="1">
          <mxGeometry x="321" y="346" width="60" height="60" as="geometry" />
        </mxCell>
        <mxCell id="GTqaI5zs6q6qDNkmL9B8-67" value="RIGHT&lt;br&gt;(50)" style="ellipse;whiteSpace=wrap;html=1;aspect=fixed;verticalAlign=middle;" parent="1" vertex="1">
          <mxGeometry x="419" y="346" width="60" height="60" as="geometry" />
        </mxCell>
        <mxCell id="GTqaI5zs6q6qDNkmL9B8-71" value="" style="curved=1;endArrow=classic;html=1;rounded=0;exitX=1;exitY=0.5;exitDx=0;exitDy=0;entryX=0.5;entryY=0;entryDx=0;entryDy=0;" parent="1" source="GTqaI5zs6q6qDNkmL9B8-64" target="GTqaI5zs6q6qDNkmL9B8-64" edge="1">
          <mxGeometry width="50" height="50" relative="1" as="geometry">
            <mxPoint x="356" y="335" as="sourcePoint" />
            <mxPoint x="406" y="285" as="targetPoint" />
            <Array as="points">
              <mxPoint x="390" y="326" />
              <mxPoint x="370" y="326" />
            </Array>
          </mxGeometry>
        </mxCell>
        <mxCell id="GTqaI5zs6q6qDNkmL9B8-72" value="10.5" style="edgeLabel;html=1;align=center;verticalAlign=middle;resizable=0;points=[];" parent="GTqaI5zs6q6qDNkmL9B8-71" vertex="1" connectable="0">
          <mxGeometry x="-0.1705" y="2" relative="1" as="geometry">
            <mxPoint x="-28" y="-12" as="offset" />
          </mxGeometry>
        </mxCell>
        <mxCell id="GTqaI5zs6q6qDNkmL9B8-77" value="" style="curved=1;endArrow=classic;html=1;rounded=0;" parent="1" edge="1">
          <mxGeometry width="50" height="50" relative="1" as="geometry">
            <mxPoint x="481" y="376" as="sourcePoint" />
            <mxPoint x="451" y="346" as="targetPoint" />
            <Array as="points">
              <mxPoint x="490" y="328" />
              <mxPoint x="470" y="328" />
            </Array>
          </mxGeometry>
        </mxCell>
        <mxCell id="GTqaI5zs6q6qDNkmL9B8-81" value="wta_inh&lt;br&gt;(50)" style="rounded=1;whiteSpace=wrap;html=1;" parent="1" vertex="1">
          <mxGeometry x="346" y="463" width="120" height="60" as="geometry" />
        </mxCell>
        <mxCell id="GTqaI5zs6q6qDNkmL9B8-84" value="2.8" style="endArrow=classic;html=1;rounded=0;exitX=0.25;exitY=0;exitDx=0;exitDy=0;entryX=0.5;entryY=1;entryDx=0;entryDy=0;labelBackgroundColor=none;" parent="1" source="GTqaI5zs6q6qDNkmL9B8-81" target="GTqaI5zs6q6qDNkmL9B8-64" edge="1">
          <mxGeometry x="-0.1381" y="12" width="50" height="50" relative="1" as="geometry">
            <mxPoint x="400" y="323" as="sourcePoint" />
            <mxPoint x="450" y="273" as="targetPoint" />
            <mxPoint y="1" as="offset" />
          </mxGeometry>
        </mxCell>
        <mxCell id="GTqaI5zs6q6qDNkmL9B8-86" value="" style="endArrow=classic;html=1;rounded=0;exitX=0.75;exitY=0;exitDx=0;exitDy=0;entryX=0.5;entryY=1;entryDx=0;entryDy=0;" parent="1" source="GTqaI5zs6q6qDNkmL9B8-81" target="GTqaI5zs6q6qDNkmL9B8-67" edge="1">
          <mxGeometry width="50" height="50" relative="1" as="geometry">
            <mxPoint x="370" y="463" as="sourcePoint" />
            <mxPoint x="361" y="403" as="targetPoint" />
          </mxGeometry>
        </mxCell>
        <mxCell id="GTqaI5zs6q6qDNkmL9B8-88" value="" style="endArrow=classic;html=1;rounded=0;exitX=0.657;exitY=0.967;exitDx=0;exitDy=0;exitPerimeter=0;entryX=0.363;entryY=-0.023;entryDx=0;entryDy=0;entryPerimeter=0;" parent="1" source="GTqaI5zs6q6qDNkmL9B8-64" target="GTqaI5zs6q6qDNkmL9B8-81" edge="1">
          <mxGeometry width="50" height="50" relative="1" as="geometry">
            <mxPoint x="400" y="323" as="sourcePoint" />
            <mxPoint x="450" y="273" as="targetPoint" />
          </mxGeometry>
        </mxCell>
        <mxCell id="GTqaI5zs6q6qDNkmL9B8-100" value="-2.6" style="edgeLabel;html=1;align=center;verticalAlign=middle;resizable=0;points=[];fontSize=11;labelBackgroundColor=none;" parent="GTqaI5zs6q6qDNkmL9B8-88" vertex="1" connectable="0">
          <mxGeometry x="-0.5315" y="3" relative="1" as="geometry">
            <mxPoint x="4" y="-11" as="offset" />
          </mxGeometry>
        </mxCell>
        <mxCell id="GTqaI5zs6q6qDNkmL9B8-90" value="" style="endArrow=classic;html=1;rounded=0;entryX=0.67;entryY=-0.027;entryDx=0;entryDy=0;entryPerimeter=0;" parent="1" target="GTqaI5zs6q6qDNkmL9B8-81" edge="1">
          <mxGeometry width="50" height="50" relative="1" as="geometry">
            <mxPoint x="430" y="403" as="sourcePoint" />
            <mxPoint x="381.6400000000001" y="462.22" as="targetPoint" />
          </mxGeometry>
        </mxCell>
        <mxCell id="GTqaI5zs6q6qDNkmL9B8-92" value="r=65500" style="endArrow=classic;html=1;rounded=0;entryX=0.5;entryY=1;entryDx=0;entryDy=0;exitX=0.5;exitY=0;exitDx=0;exitDy=0;labelBackgroundColor=none;" parent="1" source="GTqaI5zs6q6qDNkmL9B8-62" target="GTqaI5zs6q6qDNkmL9B8-61" edge="1">
          <mxGeometry x="-0.6" y="40" width="50" height="50" relative="1" as="geometry">
            <mxPoint x="390" y="470" as="sourcePoint" />
            <mxPoint x="440" y="420" as="targetPoint" />
            <mxPoint as="offset" />
          </mxGeometry>
        </mxCell>
        <mxCell id="GTqaI5zs6q6qDNkmL9B8-93" value="" style="shape=flexArrow;endArrow=classic;html=1;rounded=0;exitX=0.93;exitY=-0.007;exitDx=0;exitDy=0;entryX=0.5;entryY=1;entryDx=0;entryDy=0;exitPerimeter=0;" parent="1" source="GTqaI5zs6q6qDNkmL9B8-59" target="GTqaI5zs6q6qDNkmL9B8-60" edge="1">
          <mxGeometry width="50" height="50" relative="1" as="geometry">
            <mxPoint x="390" y="430" as="sourcePoint" />
            <mxPoint x="130" y="170" as="targetPoint" />
          </mxGeometry>
        </mxCell>
        <mxCell id="GTqaI5zs6q6qDNkmL9B8-94" value="rate=65000" style="endArrow=classic;html=1;rounded=0;exitX=0.5;exitY=1;exitDx=0;exitDy=0;" parent="1" source="GTqaI5zs6q6qDNkmL9B8-58" target="GTqaI5zs6q6qDNkmL9B8-59" edge="1">
          <mxGeometry width="50" height="50" relative="1" as="geometry">
            <mxPoint x="390" y="330" as="sourcePoint" />
            <mxPoint x="440" y="280" as="targetPoint" />
          </mxGeometry>
        </mxCell>
        <mxCell id="GTqaI5zs6q6qDNkmL9B8-96" value="w=200" style="curved=1;endArrow=classic;html=1;rounded=0;exitX=0.25;exitY=0;exitDx=0;exitDy=0;entryX=0.433;entryY=0.987;entryDx=0;entryDy=0;entryPerimeter=0;labelBackgroundColor=none;" parent="1" source="GTqaI5zs6q6qDNkmL9B8-61" target="GTqaI5zs6q6qDNkmL9B8-59" edge="1">
          <mxGeometry x="-0.0724" y="24" width="50" height="50" relative="1" as="geometry">
            <mxPoint x="60" y="330" as="sourcePoint" />
            <mxPoint x="110" y="280" as="targetPoint" />
            <Array as="points">
              <mxPoint x="50" y="320" />
              <mxPoint x="60" y="280" />
            </Array>
            <mxPoint as="offset" />
          </mxGeometry>
        </mxCell>
        <mxCell id="GTqaI5zs6q6qDNkmL9B8-97" value="w=-200&lt;br style=&quot;font-size: 12px;&quot;&gt;delayed" style="curved=1;endArrow=classic;html=1;rounded=0;exitX=0.5;exitY=0;exitDx=0;exitDy=0;entryX=0.597;entryY=1.02;entryDx=0;entryDy=0;entryPerimeter=0;fontStyle=1;fontSize=12;labelBackgroundColor=none;" parent="1" edge="1">
          <mxGeometry x="0.0229" y="-22" width="50" height="50" relative="1" as="geometry">
            <mxPoint x="112" y="360" as="sourcePoint" />
            <mxPoint x="123.6400000000001" y="251.20000000000005" as="targetPoint" />
            <Array as="points">
              <mxPoint x="92" y="330" />
              <mxPoint x="102" y="290" />
            </Array>
            <mxPoint as="offset" />
          </mxGeometry>
        </mxCell>
        <mxCell id="GTqaI5zs6q6qDNkmL9B8-98" value="w=0&lt;br&gt;DOPA" style="shape=flexArrow;endArrow=classic;html=1;rounded=0;fontSize=12;entryX=0.5;entryY=0;entryDx=0;entryDy=0;fillColor=#e1d5e7;strokeColor=#9673a6;labelBackgroundColor=none;exitX=0.5;exitY=1;exitDx=0;exitDy=0;" parent="1" target="GTqaI5zs6q6qDNkmL9B8-63" edge="1" source="GTqaI5zs6q6qDNkmL9B8-1">
          <mxGeometry x="-0.5723" y="27" width="50" height="50" relative="1" as="geometry">
            <mxPoint x="390" y="330" as="sourcePoint" />
            <mxPoint x="440" y="260" as="targetPoint" />
            <mxPoint as="offset" />
          </mxGeometry>
        </mxCell>
        <mxCell id="GTqaI5zs6q6qDNkmL9B8-99" value="w=0&lt;br&gt;DOPA" style="shape=flexArrow;endArrow=classic;html=1;rounded=0;fontSize=12;fillColor=#e1d5e7;strokeColor=#9673a6;exitX=0.018;exitY=0.956;exitDx=0;exitDy=0;exitPerimeter=0;labelBackgroundColor=none;" parent="1" source="GTqaI5zs6q6qDNkmL9B8-1" target="GTqaI5zs6q6qDNkmL9B8-61" edge="1">
          <mxGeometry x="0.1704" y="24" width="50" height="50" relative="1" as="geometry">
            <mxPoint x="400" y="340" as="sourcePoint" />
            <mxPoint x="400" y="420" as="targetPoint" />
            <mxPoint as="offset" />
          </mxGeometry>
        </mxCell>
        <mxCell id="GTqaI5zs6q6qDNkmL9B8-101" value="wta_noise" style="rounded=1;whiteSpace=wrap;html=1;fontSize=11;dashed=1;" parent="1" vertex="1">
          <mxGeometry x="637" y="334" width="120" height="60" as="geometry" />
        </mxCell>
        <mxCell id="GTqaI5zs6q6qDNkmL9B8-102" value="rate=500&lt;br&gt;w=2.1" style="endArrow=classic;html=1;rounded=0;fontSize=11;exitX=0;exitY=0.5;exitDx=0;exitDy=0;entryX=0.997;entryY=0.442;entryDx=0;entryDy=0;entryPerimeter=0;labelBackgroundColor=none;" parent="1" target="GTqaI5zs6q6qDNkmL9B8-63" edge="1" source="GTqaI5zs6q6qDNkmL9B8-101">
          <mxGeometry x="-0.2193" y="-33" width="50" height="50" relative="1" as="geometry">
            <mxPoint x="723.44" y="332.4200000000001" as="sourcePoint" />
            <mxPoint x="625.1500000000001" y="285" as="targetPoint" />
            <mxPoint as="offset" />
          </mxGeometry>
        </mxCell>
        <mxCell id="GTqaI5zs6q6qDNkmL9B8-105" value="w=1" style="endArrow=classic;html=1;fontSize=11;exitX=0.5;exitY=1;exitDx=0;exitDy=0;labelBackgroundColor=none;edgeStyle=orthogonalEdgeStyle;curved=1;entryX=1;entryY=0.5;entryDx=0;entryDy=0;" parent="1" source="GTqaI5zs6q6qDNkmL9B8-52" target="GTqaI5zs6q6qDNkmL9B8-1" edge="1">
          <mxGeometry x="-0.2" y="20" width="50" height="50" relative="1" as="geometry">
            <mxPoint x="390" y="310" as="sourcePoint" />
            <mxPoint x="450" y="140" as="targetPoint" />
            <mxPoint as="offset" />
          </mxGeometry>
        </mxCell>
        <mxCell id="GTqaI5zs6q6qDNkmL9B8-107" value="Poisson generator" style="text;html=1;align=center;verticalAlign=middle;resizable=0;points=[];autosize=1;strokeColor=none;fillColor=none;fontSize=11;" parent="1" vertex="1">
          <mxGeometry x="645" y="90" width="110" height="30" as="geometry" />
        </mxCell>
        <mxCell id="GTqaI5zs6q6qDNkmL9B8-108" value="Poisson generator" style="text;html=1;align=center;verticalAlign=middle;resizable=0;points=[];autosize=1;strokeColor=none;fillColor=none;fontSize=11;" parent="1" vertex="1">
          <mxGeometry x="35" y="520" width="110" height="30" as="geometry" />
        </mxCell>
        <mxCell id="GTqaI5zs6q6qDNkmL9B8-109" value="Poisson generator" style="text;html=1;align=center;verticalAlign=middle;resizable=0;points=[];autosize=1;strokeColor=none;fillColor=none;fontSize=11;" parent="1" vertex="1">
          <mxGeometry x="15" y="24" width="110" height="30" as="geometry" />
        </mxCell>
        <mxCell id="GTqaI5zs6q6qDNkmL9B8-110" value="Poisson generator" style="text;html=1;align=center;verticalAlign=middle;resizable=0;points=[];autosize=1;strokeColor=none;fillColor=none;fontSize=11;" parent="1" vertex="1">
          <mxGeometry x="647" y="394" width="110" height="30" as="geometry" />
        </mxCell>
        <mxCell id="2" value="" style="endArrow=none;dashed=1;html=1;rounded=0;entryX=0.5;entryY=1;entryDx=0;entryDy=0;fillColor=#e1d5e7;strokeColor=#9673a6;strokeWidth=3;startArrow=oval;startFill=1;" parent="1" target="GTqaI5zs6q6qDNkmL9B8-60" edge="1">
          <mxGeometry width="50" height="50" relative="1" as="geometry">
            <mxPoint x="180" y="270" as="sourcePoint" />
            <mxPoint x="350" y="250" as="targetPoint" />
            <Array as="points">
              <mxPoint x="170" y="260" />
            </Array>
          </mxGeometry>
        </mxCell>
        <mxCell id="3" value="" style="endArrow=none;dashed=1;html=1;rounded=0;entryX=0.5;entryY=1;entryDx=0;entryDy=0;fillColor=#e1d5e7;strokeColor=#9673a6;strokeWidth=3;startArrow=oval;startFill=1;" parent="1" target="GTqaI5zs6q6qDNkmL9B8-60" edge="1">
          <mxGeometry width="50" height="50" relative="1" as="geometry">
            <mxPoint x="400" y="270" as="sourcePoint" />
            <mxPoint x="205" y="130" as="targetPoint" />
            <Array as="points">
              <mxPoint x="220" y="260" />
            </Array>
          </mxGeometry>
        </mxCell>
      </root>
    </mxGraphModel>
  </diagram>
</mxfile>
